<svg xmlns="http://www.w3.org/2000/svg" viewBox="0 0 18.403 18.403"><defs><clipPath id="a"><path d="M33.863 145.469h83.754v83.754H33.863zm0 0"/></clipPath><clipPath id="b"><path d="M47.5 165.352h56.953v44.304H47.5zm0 0"/></clipPath></defs><path fill="#fdc7d7" d="M9.192.718C4.524.718.718 4.521.718 9.192c0 4.672 3.803 8.474 8.474 8.474 4.672 0 8.474-3.802 8.474-8.474 0-4.671-3.806-8.474-8.474-8.474zm0 0"/><path fill="#0c172b" d="M9.192.258C4.267.258.258 4.27.258 9.192c0 4.926 4.009 8.934 8.934 8.934 4.922 0 8.934-4.008 8.934-8.934 0-4.922-4.012-8.934-8.934-8.934zm0 17.172C4.65 17.43.954 13.735.954 9.192.954 4.65 4.65.954 9.192.954c4.543 0 8.238 3.696 8.238 8.238 0 4.543-3.695 8.238-8.238 8.238zm0 0"/><g clip-path="url(#a)" transform="translate(-7.448 -31.995) scale(.21994)"><path fill="#0c172b" d="M75.656 229.14c-23.082 0-41.879-18.796-41.879-41.878s18.797-41.88 41.88-41.88c23.081 0 41.878 18.798 41.878 41.88 0 23.082-18.797 41.879-41.879 41.879zm0-81.242c-21.71 0-39.363 17.653-39.363 39.364 0 21.71 17.652 39.367 39.363 39.367s39.367-17.656 39.367-39.367-17.656-39.364-39.367-39.364zm0 0"/></g><path fill="#a685de" d="M9.23 8.899a4.179 4.179 0 00-1.221.182c-.193.06-.378.134-.552.222a3.126 3.126 0 00-.483.297c-.149.112-.281.233-.397.364-.117.13-.215.268-.296.414-.08.145-.14.294-.181.449a1.793 1.793 0 000 .934c.04.154.101.304.181.45.081.144.179.283.296.413.116.13.248.252.397.363.147.112.309.21.483.298s.359.161.552.222a4.179 4.179 0 002.443 0c.194-.06.378-.134.552-.222.173-.088.335-.186.483-.298.148-.111.28-.232.398-.363.116-.13.213-.269.294-.414.08-.145.141-.295.182-.45a1.8 1.8 0 000-.933 1.955 1.955 0 00-.182-.45 2.323 2.323 0 00-.294-.413 2.74 2.74 0 00-.398-.364c-.148-.11-.31-.21-.483-.297a3.912 3.912 0 00-1.151-.357 4.176 4.176 0 00-.622-.047zm0 0"/><path fill="#a685de" d="M5.255 7.149A1.753 1.753 0 003.54 8.558a1.746 1.746 0 00.745 1.796 1.73 1.73 0 00.971.295 1.761 1.761 0 00.973-.295 1.793 1.793 0 00.483-.482 1.77 1.77 0 00.294-.973 1.746 1.746 0 00-1.08-1.617 1.763 1.763 0 00-.67-.133zm0 0"/><path fill="#a685de" d="M7.788 4.938a1.752 1.752 0 00-1.616 1.08 1.69 1.69 0 00-.133.67 1.746 1.746 0 001.08 1.617 1.763 1.763 0 001.011.1 1.763 1.763 0 00.896-.48 1.738 1.738 0 00.512-1.237 1.746 1.746 0 00-1.08-1.616 1.763 1.763 0 00-.67-.134zm0 0"/><path fill="#a685de" d="M10.994 4.938a1.746 1.746 0 00-1.616 1.08 1.752 1.752 0 002.589 2.126 1.743 1.743 0 00.483-.483 1.77 1.77 0 00.295-.973 1.746 1.746 0 00-1.081-1.616 1.743 1.743 0 00-.67-.134zm0 0"/><path fill="#a685de" d="M13.223 7.149a1.761 1.761 0 00-.972.295 1.793 1.793 0 00-.483.482 1.795 1.795 0 00-.261.632 1.746 1.746 0 00.478 1.578 1.793 1.793 0 00.568.38 1.763 1.763 0 001.011.1 1.743 1.743 0 001.114-.744 1.774 1.774 0 00.262-.632 1.746 1.746 0 00-.745-1.796 1.731 1.731 0 00-.972-.295zm0 0"/><g clip-path="url(#b)" transform="translate(-7.448 -31.995) scale(.21994)"><path fill="#0c172b" fill-rule="evenodd" d="M92.027 193.004c-2.992-.313-4.722-2.852-4.93-5.14-.445-4.91 3.071-7.973 6.571-8.65 2.332-.448 5.25.376 6.34 2.337 3 5.41-2.531 12.023-7.98 11.453zm-4.46 7.941c-.352 2.07-2.141 5-4.696 5.14-2.062.118-4.473-1.878-7.039-1.866-3.191.015-5.703 2.828-8.687 1.402-2.504-1.2-3.52-6.05-3.051-9.582.676-5.086 4.433-8.73 9.39-9.578 8.223-1.414 15.774 4.488 14.082 14.484zm-36.383-17.523c1.273-8.043 15.722-3.945 13.144 5.375-3.547 7.707-14.351 2.262-13.144-5.375zm13.464-12.7c5.2-6.284 15.555 4.555 8.579 11.278-6.985 4.844-13.516-5.309-8.579-11.277zm19.067-1.648c8.066-1.367 8.77 13.578-.922 14.117-8.469-.886-6.734-12.82.922-14.117zm19.426 10.754c-1.45-2.61-4.664-4.297-8.184-4.297-.496 0-.988.035-1.469.102.004-.211.004-.418 0-.63-.066-2.39-.828-4.636-2.136-6.331-1.622-2.098-3.973-3.25-6.622-3.25-.527 0-1.07.047-1.613.137a11.194 11.194 0 00-6.703 3.843 12.104 12.104 0 00-1.937-1.91c-1.832-1.433-3.985-2.226-6.059-2.226-2.547 0-4.809 1.105-6.535 3.191a11.104 11.104 0 00-2.547 7.473 11.601 11.601 0 00-2.852-.364c-2.109 0-4.035.598-5.566 1.73-1.77 1.31-2.902 3.235-3.27 5.571-.52 3.27.418 6.496 2.641 9.082 2.223 2.594 5.453 4.14 8.633 4.14a9.19 9.19 0 001.578-.132c-.23 2.18-.02 4.684.582 6.79.855 2.976 2.414 5.081 4.512 6.089 1.047.5 2.164.754 3.312.754 1.793 0 3.285-.594 4.602-1.121.883-.352 1.715-.684 2.344-.684l.007-.004c.598.004 1.559.399 2.407.746 1.296.528 2.765 1.13 4.43 1.13.124 0 .253-.005.378-.009 2.149-.12 4.11-1.18 5.66-3.05 1.188-1.434 2.067-3.325 2.364-5.06a19.31 19.31 0 00.203-5.034 9.623 9.623 0 001.39.097c3.957 0 7.93-2.386 10.118-6.078 2.054-3.469 2.18-7.37.332-10.695"/></g></svg>